<svg width="732" height="709" viewBox="0 0 732 709" fill="none" xmlns="http://www.w3.org/2000/svg">
<path fill-rule="evenodd" clip-rule="evenodd" d="M386.66 67.2742C457.893 78.7253 494.098 155.545 551.884 198.745C608.49 241.062 694.136 252.176 721.281 317.431C748.731 383.416 717.417 459.058 687.094 523.773C659.62 582.404 614.271 629.605 559.114 663.519C507.237 695.415 447.556 708.015 386.66 708.497C325.331 708.983 266.341 695.096 212.21 666.266C150.634 633.47 85.3278 597.071 57.4088 533.136C28.3146 466.509 39.9704 389.941 61.179 320.401C82.7056 249.819 119.487 183.9 177.737 138.599C237.283 92.2904 312.182 55.3017 386.66 67.2742Z" fill="#E1C6FD"/>
<path fill-rule="evenodd" clip-rule="evenodd" d="M335.712 4.37484C404.285 16.3329 439.137 96.554 494.765 141.666C549.257 185.857 631.704 197.463 657.835 265.607C684.26 334.514 654.116 413.504 624.925 481.085C598.478 542.312 554.822 591.602 501.725 627.017C451.786 660.326 394.334 673.484 335.712 673.987C276.674 674.494 219.887 659.993 167.778 629.886C108.502 595.638 45.6348 557.628 18.7586 490.862C-9.24895 421.286 1.97147 341.327 22.388 268.709C43.1106 195.002 78.5186 126.164 134.593 78.8576C191.914 30.4986 264.017 -8.12771 335.712 4.37484Z" stroke="black" stroke-width="3"/>
</svg>
