<svg width="842" height="734" viewBox="0 0 842 734" fill="none" xmlns="http://www.w3.org/2000/svg">
<path fill-rule="evenodd" clip-rule="evenodd" d="M450.063 478.149C481.104 481.173 485.026 519.418 506.513 538.093C520.708 550.43 543.774 554.41 554.506 568.922C565.326 583.551 566.005 601.402 566 618.527C565.995 635.648 559.737 651.553 554.476 668.118C547.468 690.184 555.312 723.176 529.881 732.256C503.054 741.833 478.974 709.017 450.063 705.394C427.366 702.55 404.199 721.409 383.149 713.87C362.297 706.402 357.866 683.906 345.792 668.051C333.233 651.559 317.758 637.061 310.542 618.527C301.404 595.056 281.855 567.035 298.479 546.532C315.463 525.582 358.487 538.395 385.326 526.287C411.273 514.581 420.676 475.286 450.063 478.149Z" fill="#E1C6FD"/>
<path fill-rule="evenodd" clip-rule="evenodd" d="M623.935 2.49436C680.474 8.94139 719.568 46.4707 756.753 84.0683C796.684 124.441 858.951 168.678 837.692 218.62C816.743 267.832 730.52 247.771 676.855 271.761C619.298 297.491 585.452 372.221 522.393 359.57C455.148 346.079 426.742 276.894 411.078 218.441C395.306 159.585 393.625 93.7003 438.851 47.8186C482.739 3.29324 557.074 -5.12958 623.935 2.49436Z" fill="#E1C6FD"/>
<path fill-rule="evenodd" clip-rule="evenodd" d="M64.8749 315.364C87.2349 311.794 104.661 335.163 116.279 354.775C125.961 371.118 125.617 390.65 120.3 408.92C115.446 425.603 103.37 437.33 89.3263 447.4C69.7014 461.473 49.1174 485.06 26.7915 475.972C4.14829 466.755 -0.757994 435.705 0.0892708 411.077C0.722317 392.675 20.1989 383.677 30.4896 368.474C42.9248 350.102 43.1021 318.841 64.8749 315.364Z" fill="#E1C6FD"/>
</svg>
