<svg width="596" height="588" viewBox="0 0 596 588" fill="none" xmlns="http://www.w3.org/2000/svg">
<path fill-rule="evenodd" clip-rule="evenodd" d="M324.247 2.92802C384.275 14.4287 378.386 114.689 428.115 150.223C470.371 180.417 568.339 132.784 577.516 183.902C588.741 246.431 486.837 272.356 460.411 330.127C448.298 356.607 474.555 386.274 471.688 415.252C467.669 455.856 467.031 500.471 440.486 531.458C412.03 564.676 367.982 586.75 324.247 587.363C280.396 587.978 238.239 564.596 206.111 534.745C176.704 507.423 181.616 457.353 153.491 428.713C111.175 385.622 26.3106 386.7 5.17055 330.127C-14.0839 278.599 24.0915 219.359 59.5446 177.301C92.9666 137.652 151.239 134 194.543 105.473C241.367 74.6284 269.179 -7.62248 324.247 2.92802Z" fill="#E1C6FD"/>
<path fill-rule="evenodd" clip-rule="evenodd" d="M358.051 2.87194C413.784 13.6776 408.317 107.88 454.488 141.266C493.721 169.635 584.681 124.881 593.202 172.91C603.624 231.66 509.01 256.018 484.474 310.298C473.227 335.178 497.607 363.052 494.944 390.279C491.213 428.429 490.621 470.348 465.974 499.463C439.554 530.673 398.658 551.413 358.051 551.989C317.337 552.567 278.196 530.597 248.366 502.551C221.063 476.88 225.624 429.836 199.51 402.927C160.221 362.44 81.4284 363.453 61.8007 310.298C43.9236 261.884 79.368 206.224 112.285 166.707C143.316 129.455 197.419 126.023 237.626 99.2204C281.1 70.2394 306.922 -7.04099 358.051 2.87194Z" stroke="#736482" stroke-width="3"/>
</svg>
