<svg width="848" height="849" viewBox="0 0 848 849" fill="none" xmlns="http://www.w3.org/2000/svg">
<path fill-rule="evenodd" clip-rule="evenodd" d="M223.969 679.24C174.691 618.889 212.105 532.587 212.729 454.675C213.333 379.383 186.184 300.834 227.507 237.891C275.691 164.498 355.031 107.326 442.775 104.272C531.942 101.168 621.444 148.603 671.536 222.435C715.81 287.69 688.557 371.882 677.292 449.93C668.452 511.175 652.447 568.194 614.568 617.125C570.319 674.283 520.701 733.069 449.314 744.421C369.034 757.187 275.381 742.204 223.969 679.24Z" fill="#E1C6FD" fill-opacity="0.7"/>
<path fill-rule="evenodd" clip-rule="evenodd" d="M392.143 52.4546C482.231 17.8946 575.599 103.316 641.417 177.582C696.268 239.472 712.128 323.683 706.135 406.746C700.662 482.592 660.683 543.355 611.034 598.688C541.652 676.015 476.695 795.044 375.54 775.192C272.947 755.059 224.991 625.879 206.715 519.342C193.061 439.741 266.318 384.341 295.771 310.179C331.363 220.563 304.42 86.1069 392.143 52.4546Z" stroke="black" stroke-width="3"/>
</svg>
