<svg width="1487" height="347" viewBox="0 0 1487 347" fill="none" xmlns="http://www.w3.org/2000/svg">
<path fill-rule="evenodd" clip-rule="evenodd" d="M2.12643 51.8323L42.8991 37.9085C84.9072 23.9847 166.452 -3.8629 249.233 3.09899C332.014 10.0609 413.559 51.8323 496.34 100.566C579.121 149.299 660.666 204.994 743.447 191.07C826.228 177.146 907.773 93.6037 990.554 72.718C1073.33 51.8323 1154.88 93.6037 1237.66 93.6037C1320.44 93.6037 1401.99 51.8323 1443.99 30.9466L1484.77 10.0609V344.232H1443.99C1401.99 344.232 1320.44 344.232 1237.66 344.232C1154.88 344.232 1073.33 344.232 990.554 344.232C907.773 344.232 826.228 344.232 743.447 344.232C660.666 344.232 579.121 344.232 496.34 344.232C413.559 344.232 332.014 344.232 249.233 344.232C166.452 344.232 84.9072 344.232 42.8991 344.232H2.12643V51.8323Z" fill="#E1C6FD"/>
<path d="M1 69.3852L1.87771 69.277L63.6694 61.6636L63.7014 61.6597C125.5 54.0453 249.257 38.7971 373.044 76.9273C414.297 89.6342 455.595 108.291 496.826 126.917C517.408 136.216 537.974 145.507 558.509 154.046C620.271 179.729 681.858 198.672 743.378 191.092C804.929 183.508 866.548 149.366 928.36 112.238C935.77 107.787 943.182 103.293 950.598 98.7983C1004.96 65.8436 1059.45 32.8087 1113.96 16.0197C1237.86 -22.1472 1361.71 23.632 1423.5 46.4691L1423.55 46.4912L1485.35 69.3316L1486 69.573V70.2695V344.354V345.354H1485H1423.21H1422.85H1422.48H1422.12H1421.75H1421.38H1421.01H1420.64H1420.27H1419.89H1419.52H1419.14H1418.76H1418.38H1418H1417.62H1417.24H1416.85H1416.46H1416.08H1415.69H1415.3H1414.91H1414.51H1414.12H1413.72H1413.32H1412.93H1412.53H1412.12H1411.72H1411.32H1410.91H1410.51H1410.1H1409.69H1409.28H1408.87H1408.45H1408.04H1407.62H1407.21H1406.79H1406.37H1405.95H1405.53H1405.1H1404.68H1404.25H1403.82H1403.39H1402.96H1402.53H1402.1H1401.67H1401.23H1400.8H1400.36H1399.92H1399.48H1399.04H1398.6H1398.15H1397.71H1397.26H1396.81H1396.36H1395.91H1395.46H1395.01H1394.56H1394.1H1393.65H1393.19H1392.73H1392.27H1391.81H1391.35H1390.88H1390.42H1389.95H1389.49H1389.02H1388.55H1388.08H1387.61H1387.13H1386.66H1386.18H1385.71H1385.23H1384.75H1384.27H1383.79H1383.31H1382.83H1382.34H1381.85H1381.37H1380.88H1380.39H1379.9H1379.41H1378.92H1378.42H1377.93H1377.43H1376.94H1376.44H1375.94H1375.44H1374.94H1374.43H1373.93H1373.43H1372.92H1372.41H1371.9H1371.4H1370.89H1370.37H1369.86H1369.35H1368.83H1368.32H1367.8H1367.28H1366.76H1366.24H1365.72H1365.2H1364.68H1364.15H1363.63H1363.1H1362.58H1362.05H1361.52H1360.99H1360.46H1359.92H1359.39H1358.85H1358.32H1357.78H1357.25H1356.71H1356.17H1355.63H1355.08H1354.54H1354H1353.45H1352.91H1352.36H1351.81H1351.27H1350.72H1350.17H1349.61H1349.06H1348.51H1347.95H1347.4H1346.84H1346.28H1345.73H1345.17H1344.61H1344.05H1343.48H1342.92H1342.36H1341.79H1341.23H1340.66H1340.09H1339.52H1338.95H1338.38H1337.81H1337.24H1336.67H1336.09H1335.52H1334.94H1334.36H1333.79H1333.21H1332.63H1332.05H1331.47H1330.88H1330.3H1329.72H1329.13H1328.55H1327.96H1327.37H1326.78H1326.19H1325.6H1325.01H1324.42H1323.83H1323.23H1322.64H1322.04H1321.45H1320.85H1320.25H1319.66H1319.06H1318.46H1317.85H1317.25H1316.65H1316.05H1315.44H1314.84H1314.23H1313.62H1313.02H1312.41H1311.8H1311.19H1310.58H1309.97H1309.35H1308.74H1308.13H1307.51H1306.9H1306.28H1305.66H1305.05H1304.43H1303.81H1303.19H1302.57H1301.95H1301.32H1300.7H1300.08H1299.45H1298.83H1298.2H1297.57H1296.95H1296.32H1295.69H1295.06H1294.43H1293.8H1293.17H1292.53H1291.9H1291.27H1290.63H1290H1289.36H1288.72H1288.09H1287.45H1286.81H1286.17H1285.53H1284.89H1284.25H1283.61H1282.96H1282.32H1281.67H1281.03H1280.38H1279.74H1279.09H1278.44H1277.8H1277.15H1276.5H1275.85H1275.2H1274.54H1273.89H1273.24H1272.59H1271.93H1271.28H1270.62H1269.97H1269.31H1268.65H1268H1267.34H1266.68H1266.02H1265.36H1264.7H1264.04H1263.38H1262.71H1262.05H1261.39H1260.72H1260.06H1259.39H1258.73H1258.06H1257.4H1256.73H1256.06H1255.39H1254.72H1254.05H1253.38H1252.71H1252.04H1251.37H1250.7H1250.02H1249.35H1248.68H1248H1247.33H1246.65H1245.97H1245.3H1244.62H1243.94H1243.26H1242.59H1241.91H1241.23H1240.55H1239.87H1239.19H1238.5H1237.82H1237.14H1236.46H1235.77H1235.09H1234.4H1233.72H1233.03H1232.35H1231.66H1230.98H1230.29H1229.6H1228.91H1228.22H1227.53H1226.85H1226.16H1225.47H1224.77H1224.08H1223.39H1222.7H1222.01H1221.31H1220.62H1219.93H1219.23H1218.54H1217.84H1217.15H1216.45H1215.76H1215.06H1214.36H1213.67H1212.97H1212.27H1211.57H1210.87H1210.17H1209.47H1208.78H1208.07H1207.37H1206.67H1205.97H1205.27H1204.57H1203.87H1203.16H1202.46H1201.76H1201.05H1200.35H1199.64H1198.94H1198.23H1197.53H1196.82H1196.12H1195.41H1194.7H1194H1193.29H1192.58H1191.88H1191.17H1190.46H1189.75H1189.04H1188.33H1187.62H1186.91H1186.2H1185.49H1184.78H1184.07H1183.36H1182.65H1181.93H1181.22H1180.51H1179.8H1179.09H1178.37H1177.66H1176.95H1176.23H1175.52H1174.8H1174.09H1173.37H1172.66H1171.94H1171.23H1170.51H1169.8H1169.08H1168.36H1167.65H1166.93H1166.21H1165.5H1164.78H1164.06H1163.35H1162.63H1161.91H1161.19H1160.47H1159.75H1159.04H1158.32H1157.6H1156.88H1156.16H1155.44H1154.72H1154H1153.28H1152.56H1151.84H1151.12H1150.4H1149.68H1148.96H1148.24H1147.51H1146.79H1146.07H1145.35H1144.63H1143.91H1143.19H1142.46H1141.74H1141.02H1140.3H1139.57H1138.85H1138.13H1137.41H1136.68H1135.96H1135.24H1134.52H1133.79H1133.07H1132.35H1131.62H1130.9H1130.18H1129.45H1128.73H1128.01H1127.28H1126.56H1125.83H1125.11H1124.39H1123.66H1122.94H1122.21H1121.49H1120.77H1120.04H1119.32H1118.59H1117.87H1117.15H1116.42H1115.7H1114.97H1114.25H1113.53H1112.8H1112.08H1111.35H1110.63H1109.91H1109.18H1108.46H1107.73H1107.01H1106.28H1105.56H1104.84H1104.11H1103.39H1102.66H1101.94H1101.22H1100.49H1099.77H1099.04H1098.32H1097.6H1096.87H1096.15H1095.42H1094.7H1093.97H1093.25H1092.53H1091.8H1091.08H1090.35H1089.63H1088.91H1088.18H1087.46H1086.73H1086.01H1085.29H1084.56H1083.84H1083.11H1082.39H1081.66H1080.94H1080.22H1079.49H1078.77H1078.04H1077.32H1076.6H1075.87H1075.15H1074.42H1073.7H1072.98H1072.25H1071.53H1070.8H1070.08H1069.35H1068.63H1067.91H1067.18H1066.46H1065.73H1065.01H1064.29H1063.56H1062.84H1062.11H1061.39H1060.67H1059.94H1059.22H1058.49H1057.77H1057.04H1056.32H1055.6H1054.87H1054.15H1053.42H1052.7H1051.98H1051.25H1050.53H1049.8H1049.08H1048.35H1047.63H1046.91H1046.18H1045.46H1044.73H1044.01H1043.29H1042.56H1041.84H1041.11H1040.39H1039.67H1038.94H1038.22H1037.49H1036.77H1036.04H1035.32H1034.6H1033.87H1033.15H1032.42H1031.7H1030.98H1030.25H1029.53H1028.8H1028.08H1027.36H1026.63H1025.91H1025.18H1024.46H1023.73H1023.01H1022.29H1021.56H1020.84H1020.11H1019.39H1018.67H1017.94H1017.22H1016.49H1015.77H1015.05H1014.32H1013.6H1012.87H1012.15H1011.42H1010.7H1009.98H1009.25H1008.53H1007.8H1007.08H1006.36H1005.63H1004.91H1004.18H1003.46H1002.74H1002.01H1001.29H1000.56H999.839H999.115H998.391H997.666H996.942H996.218H995.494H994.77H994.046H993.322H992.598H991.873H991.149H990.425H989.701H988.977H988.253H987.529H986.805H986.081H985.356H984.632H983.908H983.184H982.46H981.736H981.012H980.288H979.563H978.839H978.115H977.391H976.667H975.943H975.219H974.495H973.77H973.046H972.322H971.598H970.874H970.15H969.426H968.702H967.977H967.253H966.529H965.805H965.081H964.357H963.633H962.909H962.185H961.46H960.736H960.012H959.288H958.564H957.84H957.116H956.392H955.667H954.943H954.219H953.495H952.771H952.047H951.323H950.599H949.874H949.15H948.426H947.702H946.978H946.254H945.53H944.806H944.081H943.357H942.633H941.909H941.185H940.461H939.737H939.013H938.289H937.564H936.84H936.116H935.392H934.668H933.944H933.22H932.496H931.771H931.047H930.323H929.599H928.875H928.151H927.427H926.703H925.978H925.254H924.53H923.806H923.082H922.358H921.634H920.91H920.185H919.461H918.737H918.013H917.289H916.565H915.841H915.117H914.393H913.668H912.944H912.22H911.496H910.772H910.048H909.324H908.6H907.875H907.151H906.427H905.703H904.979H904.255H903.531H902.807H902.082H901.358H900.634H899.91H899.186H898.462H897.738H897.014H896.289H895.565H894.841H894.117H893.393H892.669H891.945H891.221H890.497H889.772H889.048H888.324H887.6H886.876H886.152H885.428H884.704H883.979H883.255H882.531H881.807H881.083H880.359H879.635H878.911H878.186H877.462H876.738H876.014H875.29H874.566H873.842H873.118H872.393H871.669H870.945H870.221H869.497H868.773H868.049H867.325H866.601H865.876H865.152H864.428H863.704H862.98H862.256H861.532H860.808H860.083H859.359H858.635H857.911H857.187H856.463H855.739H855.015H854.29H853.566H852.842H852.118H851.394H850.67H849.946H849.222H848.497H847.773H847.049H846.325H845.601H844.877H844.153H843.429H842.705H841.98H841.256H840.532H839.808H839.084H838.36H837.636H836.912H836.187H835.463H834.739H834.015H833.291H832.567H831.843H831.119H830.394H829.67H828.946H828.222H827.498H826.774H826.05H825.326H824.602H823.877H823.153H822.429H821.705H820.981H820.257H819.533H818.809H818.084H817.36H816.636H815.912H815.188H814.464H813.74H813.016H812.292H811.567H810.843H810.119H809.395H808.671H807.947H807.223H806.499H805.774H805.05H804.326H803.602H802.878H802.154H801.43H800.706H799.981H799.257H798.533H797.809H797.085H796.361H795.637H794.913H794.188H793.464H792.74H792.016H791.292H790.568H789.844H789.12H788.396H787.671H786.947H786.223H785.499H784.775H784.051H783.327H782.603H781.878H781.154H780.43H779.706H778.982H778.258H777.534H776.81H776.085H775.361H774.637H773.913H773.189H772.465H771.741H771.017H770.292H769.568H768.844H768.12H767.396H766.672H765.948H765.224H764.5H763.775H763.051H762.327H761.603H760.879H760.155H759.431H758.707H757.982H757.258H756.534H755.81H755.086H754.362H753.638H752.914H752.189H751.465H750.741H750.017H749.293H748.569H747.845H747.121H746.396H745.672H744.948H744.224H743.5H742.776H742.052H741.328H740.604H739.879H739.155H738.431H737.707H736.983H736.259H735.535H734.811H734.086H733.362H732.638H731.914H731.19H730.466H729.742H729.018H728.293H727.569H726.845H726.121H725.397H724.673H723.949H723.225H722.5H721.776H721.052H720.328H719.604H718.88H718.156H717.432H716.708H715.983H715.259H714.535H713.811H713.087H712.363H711.639H710.915H710.19H709.466H708.742H708.018H707.294H706.57H705.846H705.122H704.397H703.673H702.949H702.225H701.501H700.777H700.053H699.329H698.604H697.88H697.156H696.432H695.708H694.984H694.26H693.536H692.812H692.087H691.363H690.639H689.915H689.191H688.467H687.743H687.019H686.294H685.57H684.846H684.122H683.398H682.674H681.95H681.226H680.501H679.777H679.053H678.329H677.605H676.881H676.157H675.433H674.708H673.984H673.26H672.536H671.812H671.088H670.364H669.64H668.916H668.191H667.467H666.743H666.019H665.295H664.571H663.847H663.123H662.398H661.674H660.95H660.226H659.502H658.778H658.054H657.33H656.605H655.881H655.157H654.433H653.709H652.985H652.261H651.537H650.812H650.088H649.364H648.64H647.916H647.192H646.468H645.744H645.02H644.295H643.571H642.847H642.123H641.399H640.675H639.951H639.227H638.502H637.778H637.054H636.33H635.606H634.882H634.158H633.434H632.709H631.985H631.261H630.537H629.813H629.089H628.365H627.641H626.917H626.192H625.468H624.744H624.02H623.296H622.572H621.848H621.124H620.399H619.675H618.951H618.227H617.503H616.779H616.055H615.331H614.606H613.882H613.158H612.434H611.71H610.986H610.262H609.538H608.813H608.089H607.365H606.641H605.917H605.193H604.469H603.745H603.021H602.296H601.572H600.848H600.124H599.4H598.676H597.952H597.228H596.503H595.779H595.055H594.331H593.607H592.883H592.159H591.435H590.71H589.986H589.262H588.538H587.814H587.09H586.366H585.642H584.917H584.193H583.469H582.745H582.021H581.297H580.573H579.849H579.125H578.4H577.676H576.952H576.228H575.504H574.78H574.056H573.332H572.607H571.883H571.159H570.435H569.711H568.987H568.263H567.539H566.814H566.09H565.366H564.642H563.918H563.194H562.47H561.746H561.021H560.297H559.573H558.849H558.125H557.401H556.677H555.953H555.229H554.504H553.78H553.056H552.332H551.608H550.884H550.16H549.436H548.711H547.987H547.263H546.539H545.815H545.091H544.367H543.643H542.918H542.194H541.47H540.746H540.022H539.298H538.574H537.85H537.125H536.401H535.677H534.953H534.229H533.505H532.781H532.057H531.333H530.608H529.884H529.16H528.436H527.712H526.988H526.264H525.54H524.815H524.091H523.367H522.643H521.919H521.195H520.471H519.747H519.022H518.298H517.574H516.85H516.126H515.402H514.678H513.954H513.229H512.505H511.781H511.057H510.333H509.609H508.885H508.161H507.436H506.712H505.988H505.264H504.54H503.816H503.092H502.368H501.644H500.919H500.195H499.471H498.747H498.023H497.299H496.575H495.851H495.126H494.402H493.678H492.954H492.23H491.506H490.782H490.058H489.333H488.609H487.885H487.161H486.437H485.713H484.989H484.265H483.54H482.816H482.092H481.368H480.644H479.92H479.196H478.472H477.748H477.023H476.299H475.575H474.851H474.127H473.403H472.679H471.955H471.23H470.506H469.782H469.058H468.334H467.61H466.886H466.162H465.437H464.713H463.989H463.265H462.541H461.817H461.093H460.369H459.645H458.92H458.196H457.472H456.748H456.024H455.3H454.576H453.852H453.127H452.403H451.679H450.955H450.231H449.507H448.783H448.059H447.334H446.61H445.886H445.162H444.438H443.714H442.99H442.266H441.541H440.817H440.093H439.369H438.645H437.921H437.197H436.473H435.749H435.024H434.3H433.576H432.852H432.128H431.404H430.68H429.956H429.231H428.507H427.783H427.059H426.335H425.611H424.887H424.163H423.438H422.714H421.99H421.266H420.542H419.818H419.094H418.37H417.645H416.921H416.197H415.473H414.749H414.025H413.301H412.577H411.853H411.128H410.404H409.68H408.956H408.232H407.508H406.784H406.06H405.335H404.611H403.887H403.163H402.439H401.715H400.991H400.267H399.542H398.818H398.094H397.37H396.646H395.922H395.198H394.474H393.75H393.025H392.301H391.577H390.853H390.129H389.405H388.681H387.957H387.232H386.508H385.784H385.06H384.336H383.612H382.888H382.164H381.439H380.715H379.991H379.267H378.543H377.819H377.095H376.371H375.646H374.922H374.198H373.474H372.75L1 69.3852ZM1 69.3852V70.2695M1 69.3852V70.2695M1 70.2695H2M1 70.2695H2M2 70.2695V344.354M2 70.2695L63.7917 62.6561C125.583 55.0427 249.167 39.8158 372.75 77.883C413.944 90.5721 455.139 109.183 496.333 127.793C578.722 165.015 661.111 202.236 743.5 192.085C812.707 183.558 881.913 141.604 951.12 99.6514C1005.5 66.6882 1059.87 33.725 1114.25 16.9754C1237.83 -21.0918 1361.42 24.5889 1423.21 47.4292L1485 70.2695V343.354V344.354H1484H1423.21H1114.25H743.5H372.75H63.7917H2M2 344.354H1V345.354H2V344.354ZM64.1544 345.354H63.7917H64.1544ZM64.1544 345.354H64.5186M64.1544 345.354H64.5186M64.5186 345.354H64.8842M64.5186 345.354H64.8842M64.8842 345.354H65.2512M64.8842 345.354H65.2512M65.2512 345.354H65.6196M65.2512 345.354H65.6196M65.6196 345.354H65.9894M65.6196 345.354H65.9894M65.9894 345.354H66.3606M65.9894 345.354H66.3606M66.3606 345.354H66.7332M66.3606 345.354H66.7332M66.7332 345.354H67.1072M66.7332 345.354H67.1072M67.1072 345.354H67.4825M67.1072 345.354H67.4825M67.4825 345.354H67.8593M67.4825 345.354H67.8593M67.8593 345.354H68.2374M67.8593 345.354H68.2374M68.2374 345.354H68.617M68.2374 345.354H68.617M68.617 345.354H68.9978M68.617 345.354H68.9978M68.9978 345.354H69.3801M68.9978 345.354H69.3801M69.3801 345.354H69.7638M69.3801 345.354H69.7638M69.7638 345.354H70.1488M69.7638 345.354H70.1488M70.1488 345.354H70.5352M70.1488 345.354H70.5352M70.5352 345.354H70.9229M70.5352 345.354H70.9229M70.9229 345.354H71.312M70.9229 345.354H71.312M71.312 345.354H71.7025M71.312 345.354H71.7025M71.7025 345.354H72.0944M71.7025 345.354H72.0944M72.0944 345.354H72.4875M72.0944 345.354H72.4875M72.4875 345.354H72.8821M72.4875 345.354H72.8821M72.8821 345.354H73.278M72.8821 345.354H73.278M73.278 345.354H73.6752M73.278 345.354H73.6752M73.6752 345.354H74.0737M73.6752 345.354H74.0737M74.0737 345.354H74.4737M74.0737 345.354H74.4737M74.4737 345.354H74.8749M74.4737 345.354H74.8749M74.8749 345.354H75.2775M74.8749 345.354H75.2775M75.2775 345.354H75.6814M75.2775 345.354H75.6814M75.6814 345.354H76.0866M75.6814 345.354H76.0866M76.0866 345.354H76.4932M76.0866 345.354H76.4932M76.4932 345.354H76.9011M76.4932 345.354H76.9011M76.9011 345.354H77.3103M76.9011 345.354H77.3103M77.3103 345.354H77.7208M77.3103 345.354H77.7208M77.7208 345.354H78.1327M77.7208 345.354H78.1327M78.1327 345.354H78.5458M78.1327 345.354H78.5458M78.5458 345.354H78.9603M78.5458 345.354H78.9603M78.9603 345.354H79.3761M78.9603 345.354H79.3761M79.3761 345.354H79.7931M79.3761 345.354H79.7931M79.7931 345.354H80.2115M79.7931 345.354H80.2115M80.2115 345.354H80.6312M80.2115 345.354H80.6312M80.6312 345.354H81.0522M80.6312 345.354H81.0522M81.0522 345.354H81.4744M81.0522 345.354H81.4744M81.4744 345.354H81.898M81.4744 345.354H81.898M81.898 345.354H82.3228M81.898 345.354H82.3228M82.3228 345.354H82.7489M82.3228 345.354H82.7489M82.7489 345.354H83.1763M82.7489 345.354H83.1763M83.1763 345.354H83.605M83.1763 345.354H83.605M83.605 345.354H84.035M83.605 345.354H84.035M84.035 345.354H84.4662M84.035 345.354H84.4662M84.4662 345.354H84.8987M84.4662 345.354H84.8987M84.8987 345.354H85.3325M84.8987 345.354H85.3325M85.3325 345.354H85.7675M85.3325 345.354H85.7675M85.7675 345.354H86.2038M85.7675 345.354H86.2038M86.2038 345.354H86.6414M86.2038 345.354H86.6414M86.6414 345.354H87.0802M86.6414 345.354H87.0802M87.0802 345.354H87.5203M87.0802 345.354H87.5203M87.5203 345.354H87.9616M87.5203 345.354H87.9616M87.9616 345.354H88.4042M87.9616 345.354H88.4042M88.4042 345.354H88.848M88.4042 345.354H88.848M88.848 345.354H89.293M88.848 345.354H89.293M89.293 345.354H89.7393M89.293 345.354H89.7393M89.7393 345.354H90.1869M89.7393 345.354H90.1869M90.1869 345.354H90.6356M90.1869 345.354H90.6356M90.6356 345.354H91.0856M90.6356 345.354H91.0856M91.0856 345.354H91.5369M91.0856 345.354H91.5369M91.5369 345.354H91.9893M91.5369 345.354H91.9893M91.9893 345.354H92.443M91.9893 345.354H92.443M92.443 345.354H92.8979M92.443 345.354H92.8979M92.8979 345.354H93.354M92.8979 345.354H93.354M93.354 345.354H93.8114M93.354 345.354H93.8114M93.8114 345.354H94.2699M93.8114 345.354H94.2699M94.2699 345.354H94.7297M94.2699 345.354H94.7297M94.7297 345.354H95.1907M94.7297 345.354H95.1907M95.1907 345.354H95.6528M95.1907 345.354H95.6528M95.6528 345.354H96.1162M95.6528 345.354H96.1162M96.1162 345.354H96.5808M96.1162 345.354H96.5808M96.5808 345.354H97.0465M96.5808 345.354H97.0465M97.0465 345.354H97.5135M97.0465 345.354H97.5135M97.5135 345.354H97.9817M97.5135 345.354H97.9817M97.9817 345.354H98.451M97.9817 345.354H98.451M98.451 345.354H98.9215M98.451 345.354H98.9215M98.9215 345.354H99.3932M98.9215 345.354H99.3932M99.3932 345.354H99.8661M99.3932 345.354H99.8661M99.8661 345.354H100.34M99.8661 345.354H100.34M100.34 345.354H100.815M100.34 345.354H100.815M100.815 345.354H101.292M100.815 345.354H101.292M101.292 345.354H101.769M101.292 345.354H101.769M101.769 345.354H102.248M101.769 345.354H102.248M102.248 345.354H102.728M102.248 345.354H102.728M102.728 345.354H103.209M102.728 345.354H103.209M103.209 345.354H103.691M103.209 345.354H103.691M103.691 345.354H104.175M103.691 345.354H104.175M104.175 345.354H104.659M104.175 345.354H104.659M104.659 345.354H105.145M104.659 345.354H105.145M105.145 345.354H105.632M105.145 345.354H105.632M105.632 345.354H106.12M105.632 345.354H106.12M106.12 345.354H106.609M106.12 345.354H106.609M106.609 345.354H107.099M106.609 345.354H107.099M107.099 345.354H107.59M107.099 345.354H107.59M107.59 345.354H108.083M107.59 345.354H108.083M108.083 345.354H108.577M108.083 345.354H108.577M108.577 345.354H109.071M108.577 345.354H109.071M109.071 345.354H109.567M109.071 345.354H109.567M109.567 345.354H110.064M109.567 345.354H110.064M110.064 345.354H110.562M110.064 345.354H110.562M110.562 345.354H111.062M110.562 345.354H111.062M111.062 345.354H111.562M111.062 345.354H111.562M111.562 345.354H112.064M111.562 345.354H112.064M112.064 345.354H112.566M112.064 345.354H112.566M112.566 345.354H113.07M112.566 345.354H113.07M113.07 345.354H113.575M113.07 345.354H113.575M113.575 345.354H114.08M113.575 345.354H114.08M114.08 345.354H114.587M114.08 345.354H114.587M114.587 345.354H115.096M114.587 345.354H115.096M115.096 345.354H115.605M115.096 345.354H115.605M115.605 345.354H116.115M115.605 345.354H116.115M116.115 345.354H116.626M116.115 345.354H116.626M116.626 345.354H117.139M116.626 345.354H117.139M117.139 345.354H117.652M117.139 345.354H117.652M117.652 345.354H118.167M117.652 345.354H118.167M118.167 345.354H118.683M118.167 345.354H118.683M118.683 345.354H119.199M118.683 345.354H119.199M119.199 345.354H119.717M119.199 345.354H119.717M119.717 345.354H120.236M119.717 345.354H120.236M120.236 345.354H120.756M120.236 345.354H120.756M120.756 345.354H121.277M120.756 345.354H121.277M121.277 345.354H121.799M121.277 345.354H121.799M121.799 345.354H122.322M121.799 345.354H122.322M122.322 345.354H122.846M122.322 345.354H122.846M122.846 345.354H123.371M122.846 345.354H123.371M123.371 345.354H123.898M123.371 345.354H123.898M123.898 345.354H124.425M123.898 345.354H124.425M124.425 345.354H124.953M124.425 345.354H124.953M124.953 345.354H125.483M124.953 345.354H125.483M125.483 345.354H126.013M125.483 345.354H126.013M126.013 345.354H126.544M126.013 345.354H126.544M126.544 345.354H127.077M126.544 345.354H127.077M127.077 345.354H127.61M127.077 345.354H127.61M127.61 345.354H128.145M127.61 345.354H128.145M128.145 345.354H128.681M128.145 345.354H128.681M128.681 345.354H129.217M128.681 345.354H129.217M129.217 345.354H129.755M129.217 345.354H129.755M129.755 345.354H130.293M129.755 345.354H130.293M130.293 345.354H130.833M130.293 345.354H130.833M130.833 345.354H131.374M130.833 345.354H131.374M131.374 345.354H131.915M131.374 345.354H131.915M131.915 345.354H132.458M131.915 345.354H132.458M132.458 345.354H133.001M132.458 345.354H133.001M133.001 345.354H133.546M133.001 345.354H133.546M133.546 345.354H134.092M133.546 345.354H134.092M134.092 345.354H134.638M134.092 345.354H134.638M134.638 345.354H135.186M134.638 345.354H135.186M135.186 345.354H135.734M135.186 345.354H135.734M135.734 345.354H136.284M135.734 345.354H136.284M136.284 345.354H136.835M136.284 345.354H136.835M136.835 345.354H137.386M136.835 345.354H137.386M137.386 345.354H137.939M137.386 345.354H137.939M137.939 345.354H138.492M137.939 345.354H138.492M138.492 345.354H139.047M138.492 345.354H139.047M139.047 345.354H139.602M139.047 345.354H139.602M139.602 345.354H140.158M139.602 345.354H140.158M140.158 345.354H140.716M140.158 345.354H140.716M140.716 345.354H141.274M140.716 345.354H141.274M141.274 345.354H141.833M141.274 345.354H141.833M141.833 345.354H142.393M141.833 345.354H142.393M142.393 345.354H142.955M142.393 345.354H142.955M142.955 345.354H143.517M142.955 345.354H143.517M143.517 345.354H144.08M143.517 345.354H144.08M144.08 345.354H144.644M144.08 345.354H144.644M144.644 345.354H145.209M144.644 345.354H145.209M145.209 345.354H145.775M145.209 345.354H145.775M145.775 345.354H146.341M145.775 345.354H146.341M146.341 345.354H146.909M146.341 345.354H146.909M146.909 345.354H147.478M146.909 345.354H147.478M147.478 345.354H148.047M147.478 345.354H148.047M148.047 345.354H148.618M148.047 345.354H148.618M148.618 345.354H149.189M148.618 345.354H149.189M149.189 345.354H149.762M149.189 345.354H149.762M149.762 345.354H150.335M149.762 345.354H150.335M150.335 345.354H150.909M150.335 345.354H150.909M150.909 345.354H151.484M150.909 345.354H151.484M151.484 345.354H152.06M151.484 345.354H152.06M152.06 345.354H152.637M152.06 345.354H152.637M152.637 345.354H153.215M152.637 345.354H153.215M153.215 345.354H153.793M153.215 345.354H153.793M153.793 345.354H154.373M153.793 345.354H154.373M154.373 345.354H154.953M154.373 345.354H154.953M154.953 345.354H155.535M154.953 345.354H155.535M155.535 345.354H156.117M155.535 345.354H156.117M156.117 345.354H156.7M156.117 345.354H156.7M156.7 345.354H157.284M156.7 345.354H157.284M157.284 345.354H157.869M157.284 345.354H157.869M157.869 345.354H158.455M157.869 345.354H158.455M158.455 345.354H159.042M158.455 345.354H159.042M159.042 345.354H159.629M159.042 345.354H159.629M159.629 345.354H160.217M159.629 345.354H160.217M160.217 345.354H160.807M160.217 345.354H160.807M160.807 345.354H161.397M160.807 345.354H161.397M161.397 345.354H161.988M161.397 345.354H161.988M161.988 345.354H162.58M161.988 345.354H162.58M162.58 345.354H163.172M162.58 345.354H163.172M163.172 345.354H163.766M163.172 345.354H163.766M163.766 345.354H164.36M163.766 345.354H164.36M164.36 345.354H164.955M164.36 345.354H164.955M164.955 345.354H165.551M164.955 345.354H165.551M165.551 345.354H166.148M165.551 345.354H166.148M166.148 345.354H166.746M166.148 345.354H166.746M166.746 345.354H167.345M166.746 345.354H167.345M167.345 345.354H167.944M167.345 345.354H167.944M167.944 345.354H168.544M167.944 345.354H168.544M168.544 345.354H169.145M168.544 345.354H169.145M169.145 345.354H169.747M169.145 345.354H169.747M169.747 345.354H170.35M169.747 345.354H170.35M170.35 345.354H170.953M170.35 345.354H170.953M170.953 345.354H171.558M170.953 345.354H171.558M171.558 345.354H172.163M171.558 345.354H172.163M172.163 345.354H172.769M172.163 345.354H172.769M172.769 345.354H173.376M172.769 345.354H173.376M173.376 345.354H173.983M173.376 345.354H173.983M173.983 345.354H174.592M173.983 345.354H174.592M174.592 345.354H175.201M174.592 345.354H175.201M175.201 345.354H175.811M175.201 345.354H175.811M175.811 345.354H176.421M175.811 345.354H176.421M176.421 345.354H177.033M176.421 345.354H177.033M177.033 345.354H177.645M177.033 345.354H177.645M177.645 345.354H178.258M177.645 345.354H178.258M178.258 345.354H178.872M178.258 345.354H178.872M178.872 345.354H179.487M178.872 345.354H179.487M179.487 345.354H180.102M179.487 345.354H180.102M180.102 345.354H180.719M180.102 345.354H180.719M180.719 345.354H181.336M180.719 345.354H181.336M181.336 345.354H181.953M181.336 345.354H181.953M181.953 345.354H182.572M181.953 345.354H182.572M182.572 345.354H183.191M182.572 345.354H183.191M183.191 345.354H183.811M183.191 345.354H183.811M183.811 345.354H184.432M183.811 345.354H184.432M184.432 345.354H185.054M184.432 345.354H185.054M185.054 345.354H185.676M185.054 345.354H185.676M185.676 345.354H186.299M185.676 345.354H186.299M186.299 345.354H186.923M186.299 345.354H186.923M186.923 345.354H187.547M186.923 345.354H187.547M187.547 345.354H188.173M187.547 345.354H188.173M188.173 345.354H188.799M188.173 345.354H188.799M188.799 345.354H189.425M188.799 345.354H189.425M189.425 345.354H190.053M189.425 345.354H190.053M190.053 345.354H190.681M190.053 345.354H190.681M190.681 345.354H191.31M190.681 345.354H191.31M191.31 345.354H191.94M191.31 345.354H191.94M191.94 345.354H192.57M191.94 345.354H192.57M192.57 345.354H193.201M192.57 345.354H193.201M193.201 345.354H193.833M193.201 345.354H193.833M193.833 345.354H194.466M193.833 345.354H194.466M194.466 345.354H195.099M194.466 345.354H195.099M195.099 345.354H195.733M195.099 345.354H195.733M195.733 345.354H196.368M195.733 345.354H196.368M196.368 345.354H197.003M196.368 345.354H197.003M197.003 345.354H197.639M197.003 345.354H197.639M197.639 345.354H198.276M197.639 345.354H198.276M198.276 345.354H198.913M198.276 345.354H198.913M198.913 345.354H199.551M198.913 345.354H199.551M199.551 345.354H200.19M199.551 345.354H200.19M200.19 345.354H200.83M200.19 345.354H200.83M200.83 345.354H201.47M200.83 345.354H201.47M201.47 345.354H202.111M201.47 345.354H202.111M202.111 345.354H202.752M202.111 345.354H202.752M202.752 345.354H203.395M202.752 345.354H203.395M203.395 345.354H204.037M203.395 345.354H204.037M204.037 345.354H204.681M204.037 345.354H204.681M204.681 345.354H205.325M204.681 345.354H205.325M205.325 345.354H205.97M205.325 345.354H205.97M205.97 345.354H206.616M205.97 345.354H206.616M206.616 345.354H207.262M206.616 345.354H207.262M207.262 345.354H207.909M207.262 345.354H207.909M207.909 345.354H208.556M207.909 345.354H208.556M208.556 345.354H209.205M208.556 345.354H209.205M209.205 345.354H209.853M209.205 345.354H209.853M209.853 345.354H210.503M209.853 345.354H210.503M210.503 345.354H211.153M210.503 345.354H211.153M211.153 345.354H211.804M211.153 345.354H211.804M211.804 345.354H212.455M211.804 345.354H212.455M212.455 345.354H213.107M212.455 345.354H213.107M213.107 345.354H213.76M213.107 345.354H213.76M213.76 345.354H214.413M213.76 345.354H214.413M214.413 345.354H215.067M214.413 345.354H215.067M215.067 345.354H215.721M215.067 345.354H215.721M215.721 345.354H216.376M215.721 345.354H216.376M216.376 345.354H217.032M216.376 345.354H217.032M217.032 345.354H217.689M217.032 345.354H217.689M217.689 345.354H218.346M217.689 345.354H218.346M218.346 345.354H219.003M218.346 345.354H219.003M219.003 345.354H219.661M219.003 345.354H219.661M219.661 345.354H220.32M219.661 345.354H220.32M220.32 345.354H220.979M220.32 345.354H220.979M220.979 345.354H221.639M220.979 345.354H221.639M221.639 345.354H222.3M221.639 345.354H222.3M222.3 345.354H222.961M222.3 345.354H222.961M222.961 345.354H223.623M222.961 345.354H223.623M223.623 345.354H224.285M223.623 345.354H224.285M224.285 345.354H224.948M224.285 345.354H224.948M224.948 345.354H225.612M224.948 345.354H225.612M225.612 345.354H226.276M225.612 345.354H226.276M226.276 345.354H226.94M226.276 345.354H226.94M226.94 345.354H227.606M226.94 345.354H227.606M227.606 345.354H228.271M227.606 345.354H228.271M228.271 345.354H228.938M228.271 345.354H228.938M228.938 345.354H229.605M228.938 345.354H229.605M229.605 345.354H230.272M229.605 345.354H230.272M230.272 345.354H230.94M230.272 345.354H230.94M230.94 345.354H231.609M230.94 345.354H231.609M231.609 345.354H232.278M231.609 345.354H232.278M232.278 345.354H232.948M232.278 345.354H232.948M232.948 345.354H233.618M232.948 345.354H233.618M233.618 345.354H234.289M233.618 345.354H234.289M234.289 345.354H234.96M234.289 345.354H234.96M234.96 345.354H235.632M234.96 345.354H235.632M235.632 345.354H236.304M235.632 345.354H236.304M236.304 345.354H236.977M236.304 345.354H236.977M236.977 345.354H237.651M236.977 345.354H237.651M237.651 345.354H238.325M237.651 345.354H238.325M238.325 345.354H238.999M238.325 345.354H238.999M238.999 345.354H239.674M238.999 345.354H239.674M239.674 345.354H240.35M239.674 345.354H240.35M240.35 345.354H241.026M240.35 345.354H241.026M241.026 345.354H241.703M241.026 345.354H241.703M241.703 345.354H242.38M241.703 345.354H242.38M242.38 345.354H243.057M242.38 345.354H243.057M243.057 345.354H243.735M243.057 345.354H243.735M243.735 345.354H244.414M243.735 345.354H244.414M244.414 345.354H245.093M244.414 345.354H245.093M245.093 345.354H245.773M245.093 345.354H245.773M245.773 345.354H246.453M245.773 345.354H246.453M246.453 345.354H247.133M246.453 345.354H247.133M247.133 345.354H247.815M247.133 345.354H247.815M247.815 345.354H248.496M247.815 345.354H248.496M248.496 345.354H249.178M248.496 345.354H249.178M249.178 345.354H249.861M249.178 345.354H249.861M249.861 345.354H250.544M249.861 345.354H250.544M250.544 345.354H251.227M250.544 345.354H251.227M251.227 345.354H251.911M251.227 345.354H251.911M251.911 345.354H252.596M251.911 345.354H252.596M252.596 345.354H253.281M252.596 345.354H253.281M253.281 345.354H253.966M253.281 345.354H253.966M253.966 345.354H254.652M253.966 345.354H254.652M254.652 345.354H255.338M254.652 345.354H255.338M255.338 345.354H256.025M255.338 345.354H256.025M256.025 345.354H256.712M256.025 345.354H256.712M256.712 345.354H257.4M256.712 345.354H257.4M257.4 345.354H258.088M257.4 345.354H258.088M258.088 345.354H258.776M258.088 345.354H258.776M258.776 345.354H259.465M258.776 345.354H259.465M259.465 345.354H260.155M259.465 345.354H260.155M260.155 345.354H260.845M260.155 345.354H260.845M260.845 345.354H261.535M260.845 345.354H261.535M261.535 345.354H262.226M261.535 345.354H262.226M262.226 345.354H262.917M262.226 345.354H262.917M262.917 345.354H263.608M262.917 345.354H263.608M263.608 345.354H264.3M263.608 345.354H264.3M264.3 345.354H264.993M264.3 345.354H264.993M264.993 345.354H265.686M264.993 345.354H265.686M265.686 345.354H266.379M265.686 345.354H266.379M266.379 345.354H267.073M266.379 345.354H267.073M267.073 345.354H267.767M267.073 345.354H267.767M267.767 345.354H268.461M267.767 345.354H268.461M268.461 345.354H269.156M268.461 345.354H269.156M269.156 345.354H269.851M269.156 345.354H269.851M269.851 345.354H270.547M269.851 345.354H270.547M270.547 345.354H271.243M270.547 345.354H271.243M271.243 345.354H271.939M271.243 345.354H271.939M271.939 345.354H272.636M271.939 345.354H272.636M272.636 345.354H273.334M272.636 345.354H273.334M273.334 345.354H274.031M273.334 345.354H274.031M274.031 345.354H274.729M274.031 345.354H274.729M274.729 345.354H275.428M274.729 345.354H275.428M275.428 345.354H276.126M275.428 345.354H276.126M276.126 345.354H276.826M276.126 345.354H276.826M276.826 345.354H277.525M276.826 345.354H277.525M277.525 345.354H278.225M277.525 345.354H278.225M278.225 345.354H278.925M278.225 345.354H278.925M278.925 345.354H279.626M278.925 345.354H279.626M279.626 345.354H280.327M279.626 345.354H280.327M280.327 345.354H281.028M280.327 345.354H281.028M281.028 345.354H281.73M281.028 345.354H281.73M281.73 345.354H282.432M281.73 345.354H282.432M282.432 345.354H283.134M282.432 345.354H283.134M283.134 345.354H283.837M283.134 345.354H283.837M283.837 345.354H284.54M283.837 345.354H284.54M284.54 345.354H285.243M284.54 345.354H285.243M285.243 345.354H285.947M285.243 345.354H285.947M285.947 345.354H286.651M285.947 345.354H286.651M286.651 345.354H287.355M286.651 345.354H287.355M287.355 345.354H288.06M287.355 345.354H288.06M288.06 345.354H288.765M288.06 345.354H288.765M288.765 345.354H289.471M288.765 345.354H289.471M289.471 345.354H290.176M289.471 345.354H290.176M290.176 345.354H290.882M290.176 345.354H290.882M290.882 345.354H291.589M290.882 345.354H291.589M291.589 345.354H292.295M291.589 345.354H292.295M292.295 345.354H293.002M292.295 345.354H293.002M293.002 345.354H293.709M293.002 345.354H293.709M293.709 345.354H294.417M293.709 345.354H294.417M294.417 345.354H295.125M294.417 345.354H295.125M295.125 345.354H295.833M295.125 345.354H295.833M295.833 345.354H296.541M295.833 345.354H296.541M296.541 345.354H297.25M296.541 345.354H297.25M297.25 345.354H297.959M297.25 345.354H297.959M297.959 345.354H298.669M297.959 345.354H298.669M298.669 345.354H299.378M298.669 345.354H299.378M299.378 345.354H300.088M299.378 345.354H300.088M300.088 345.354H300.798M300.088 345.354H300.798M300.798 345.354H301.509M300.798 345.354H301.509M301.509 345.354H302.219M301.509 345.354H302.219M302.219 345.354H302.93M302.219 345.354H302.93M302.93 345.354H303.642M302.93 345.354H303.642M303.642 345.354H304.353M303.642 345.354H304.353M304.353 345.354H305.065M304.353 345.354H305.065M305.065 345.354H305.777M305.065 345.354H305.777M305.777 345.354H306.489M305.777 345.354H306.489M306.489 345.354H307.202M306.489 345.354H307.202M307.202 345.354H307.915M307.202 345.354H307.915M307.915 345.354H308.628M307.915 345.354H308.628M308.628 345.354H309.341M308.628 345.354H309.341M309.341 345.354H310.055M309.341 345.354H310.055M310.055 345.354H310.768M310.055 345.354H310.768M310.768 345.354H311.482M310.768 345.354H311.482M311.482 345.354H312.197M311.482 345.354H312.197M312.197 345.354H312.911M312.197 345.354H312.911M312.911 345.354H313.626M312.911 345.354H313.626M313.626 345.354H314.341M313.626 345.354H314.341M314.341 345.354H315.056M314.341 345.354H315.056M315.056 345.354H315.771M315.056 345.354H315.771M315.771 345.354H316.487M315.771 345.354H316.487M316.487 345.354H317.203M316.487 345.354H317.203M317.203 345.354H317.919M317.203 345.354H317.919M317.919 345.354H318.635M317.919 345.354H318.635M318.635 345.354H319.352M318.635 345.354H319.352M319.352 345.354H320.068M319.352 345.354H320.068M320.068 345.354H320.785M320.068 345.354H320.785M320.785 345.354H321.502M320.785 345.354H321.502M321.502 345.354H322.219M321.502 345.354H322.219M322.219 345.354H322.937M322.219 345.354H322.937M322.937 345.354H323.655M322.937 345.354H323.655M323.655 345.354H324.372M323.655 345.354H324.372M324.372 345.354H325.09M324.372 345.354H325.09M325.09 345.354H325.809M325.09 345.354H325.809M325.809 345.354H326.527H325.809Z" stroke="black" stroke-width="2"/>
</svg>
